<svg width="22" height="57" viewBox="0 0 22 57" fill="none" xmlns="http://www.w3.org/2000/svg">
<g clip-path="url(#clip0_0_91)">
<path d="M18.7164 38.865C18.1917 38.865 17.7096 38.7338 17.27 38.4715C16.8304 38.2092 16.4795 37.8547 16.2171 37.408C15.9548 36.9613 15.8236 36.4757 15.8236 35.951V20.509C15.852 20.4239 15.8307 20.353 15.7598 20.2963C15.6889 20.2396 15.6145 20.2396 15.5365 20.2963C15.4585 20.353 15.4337 20.4239 15.4621 20.509V35.951C15.4621 36.4757 15.3309 36.9613 15.0686 37.408C14.8062 37.8547 14.4517 38.2092 14.0051 38.4715C13.5584 38.7338 13.0727 38.865 12.5481 38.865C12.0234 38.865 11.5377 38.7338 11.0911 38.4715C10.6444 38.2092 10.2899 37.8547 10.0276 37.408C9.76524 36.9613 9.63407 36.4757 9.63407 35.951V20.509C9.66243 20.4239 9.63762 20.353 9.55963 20.2963C9.48164 20.2396 9.40719 20.2396 9.33629 20.2963C9.26539 20.353 9.24412 20.4239 9.27248 20.509V35.951C9.27248 36.4757 9.14132 36.9613 8.87899 37.408C8.61666 37.8547 8.26216 38.2092 7.81549 38.4715C7.36882 38.7338 6.88315 38.865 6.35849 38.865H5.97563V38.8437C5.49351 38.787 5.06102 38.6204 4.67816 38.3439C4.2953 38.0674 3.99398 37.72 3.77419 37.3016C3.5544 36.8833 3.4445 36.4331 3.4445 35.951V20.509C3.47286 20.4239 3.45159 20.353 3.38069 20.2963C3.30979 20.2396 3.23535 20.2396 3.15736 20.2963C3.07937 20.353 3.05455 20.4239 3.08291 20.509V38.865H0.360352V20.509C0.360352 19.9843 0.491517 19.4987 0.753847 19.052C1.01618 18.6053 1.37068 18.2508 1.81735 17.9885C2.26402 17.7262 2.74968 17.595 3.27434 17.595C3.799 17.595 4.28467 17.7262 4.73134 17.9885C5.17801 18.2508 5.53251 18.6053 5.79484 19.052C6.05717 19.4987 6.18833 19.9843 6.18833 20.509V35.951C6.15997 36.0361 6.18479 36.107 6.26278 36.1637C6.34077 36.2204 6.41521 36.2204 6.48611 36.1637C6.55701 36.107 6.57828 36.0361 6.54992 35.951V20.509C6.54992 19.9843 6.68109 19.4987 6.94342 19.052C7.20575 18.6053 7.5567 18.2508 7.99628 17.9885C8.43586 17.7262 8.91798 17.595 9.44264 17.595H9.8255V17.6163C10.3076 17.673 10.7401 17.8396 11.123 18.1161C11.5058 18.3926 11.8072 18.74 12.0269 19.1583C12.2467 19.5766 12.3566 20.0269 12.3566 20.509V35.951C12.3283 36.0361 12.3531 36.107 12.4311 36.1637C12.5091 36.2204 12.5835 36.2204 12.6544 36.1637C12.7253 36.107 12.7466 36.0361 12.7182 35.951V20.509C12.7182 19.9843 12.8494 19.4987 13.1117 19.052C13.374 18.6053 13.7285 18.2508 14.1752 17.9885C14.6219 17.7262 15.1076 17.595 15.6322 17.595H16.0151V17.6163C16.4972 17.673 16.9297 17.8396 17.3125 18.1161C17.6954 18.3926 17.9967 18.74 18.2165 19.1583C18.4363 19.5766 18.5462 20.0269 18.5462 20.509V35.951C18.5178 36.0361 18.5427 36.107 18.6206 36.1637C18.6986 36.2204 18.7731 36.2204 18.844 36.1637C18.9149 36.107 18.9362 36.0361 18.9078 35.951V17.595H21.6304V35.951C21.6304 36.4757 21.4992 36.9613 21.2369 37.408C20.9745 37.8547 20.62 38.2092 20.1734 38.4715C19.7267 38.7338 19.241 38.865 18.7164 38.865Z" fill="white"/>
</g>
<defs>
<clipPath id="clip0_0_91">
<rect width="21.27" height="56" fill="white" transform="matrix(1 0 0 -1 0.360352 56.23)"/>
</clipPath>
</defs>
</svg>
