<svg width="22" height="57" viewBox="0 0 22 57" fill="none" xmlns="http://www.w3.org/2000/svg">
<g clip-path="url(#clip0_0_79)">
<path d="M0.360352 27.7933V17.4348H10.6976V17.4561C10.6976 18.8599 10.4282 20.1999 9.88931 21.4761C9.36465 22.7098 8.62375 23.8052 7.6666 24.7623C6.70945 25.7195 5.61404 26.4604 4.38038 26.9851C3.10418 27.5239 1.76417 27.7933 0.360352 27.7933ZM11.2931 27.7933V17.4348H21.6304V17.4561C21.6304 18.8599 21.3609 20.1999 20.8221 21.4761C20.2974 22.7098 19.5565 23.8052 18.5994 24.7623C17.6422 25.7195 16.5468 26.4604 15.3132 26.9851C14.037 27.5239 12.697 27.7933 11.2931 27.7933ZM21.6304 28.3463V38.7048H11.2931C11.2931 37.3294 11.5555 36.0071 12.0801 34.738C12.6048 33.4689 13.3492 32.3486 14.3135 31.3773C15.2777 30.406 16.3944 29.658 17.6635 29.1333C18.9326 28.6087 20.2549 28.3463 21.6304 28.3463ZM10.6976 28.3463V38.7048H0.360352C0.360352 37.3294 0.622682 36.0071 1.14734 34.738C1.672 33.4689 2.41645 32.3486 3.38069 31.3773C4.34493 30.406 5.46161 29.658 6.73072 29.1333C7.99983 28.6087 9.32211 28.3463 10.6976 28.3463Z" fill="white"/>
</g>
<defs>
<clipPath id="clip0_0_79">
<rect width="21.27" height="56" fill="white" transform="matrix(1 0 0 -1 0.360352 56.0698)"/>
</clipPath>
</defs>
</svg>
