<svg width="22" height="57" viewBox="0 0 22 57" fill="none" xmlns="http://www.w3.org/2000/svg">
<g clip-path="url(#clip0_0_85)">
<path d="M0.360352 24.5978C0.360352 25.5337 0.537602 26.4377 0.892102 27.3097C1.2466 28.1818 1.75708 28.9511 2.42354 29.6175C3.09 30.284 3.85927 30.798 4.73134 31.1596C5.60341 31.5212 6.50738 31.702 7.44326 31.702V26.7461C7.03204 26.7886 6.64209 26.7177 6.27341 26.5334C5.90473 26.3491 5.61404 26.0832 5.40134 25.7358C5.18864 25.3884 5.08229 25.0126 5.08229 24.6085C5.08229 24.2043 5.18864 23.8286 5.40134 23.4811C5.61404 23.1337 5.90473 22.8679 6.27341 22.6835C6.64209 22.4992 7.03204 22.4283 7.44326 22.4708V17.5149C6.16706 17.5149 4.97594 17.834 3.8699 18.4721C2.8064 19.1102 1.9556 19.961 1.3175 21.0245C0.679402 22.1305 0.360352 23.3216 0.360352 24.5978ZM14.5474 17.5149C13.6116 17.5149 12.7076 17.6922 11.8355 18.0467C10.9634 18.4012 10.1942 18.9116 9.52772 19.5781C8.86126 20.2446 8.34724 21.0138 7.98565 21.8859C7.62406 22.758 7.44326 23.6619 7.44326 24.5978H12.3992C12.4559 24.0448 12.6899 23.584 13.1011 23.2153C13.5123 22.8466 13.9909 22.6623 14.5368 22.6623C15.0827 22.6623 15.5613 22.8466 15.9725 23.2153C16.3838 23.584 16.6177 24.0448 16.6744 24.5978H21.6304C21.6304 23.3216 21.3113 22.1305 20.6732 21.0245C20.0351 19.961 19.1843 19.1102 18.1208 18.4721C17.0148 17.834 15.8236 17.5149 14.5474 17.5149ZM21.6304 31.702C21.6304 32.9782 21.3113 34.1693 20.6732 35.2754C20.0351 36.3389 19.1843 37.1897 18.1208 37.8278C17.0148 38.4659 15.8236 38.7849 14.5474 38.7849V33.829C14.9587 33.8715 15.3486 33.8006 15.7173 33.6163C16.086 33.432 16.3767 33.1661 16.5894 32.8187C16.8021 32.4713 16.9084 32.0955 16.9084 31.6914C16.9084 31.2872 16.8021 30.9115 16.5894 30.5641C16.3767 30.2166 16.086 29.9508 15.7173 29.7664C15.3486 29.5821 14.9587 29.5112 14.5474 29.5537V24.5978C15.4833 24.5978 16.3873 24.7786 17.2594 25.1402C18.1314 25.5018 18.9007 26.0158 19.5672 26.6823C20.2336 27.3487 20.7441 28.118 21.0986 28.9901C21.4531 29.8621 21.6304 30.7661 21.6304 31.702ZM7.44326 38.7849C6.16706 38.7849 4.97594 38.4659 3.8699 37.8278C2.8064 37.1897 1.9556 36.3389 1.3175 35.2754C0.679402 34.1693 0.360352 32.9782 0.360352 31.702H5.31626C5.37298 32.255 5.60695 32.7159 6.01817 33.0846C6.42939 33.4532 6.90797 33.6376 7.4539 33.6376C7.99983 33.6376 8.4784 33.4532 8.88962 33.0846C9.30084 32.7159 9.53481 32.255 9.59153 31.702H14.5474C14.5474 32.6379 14.3666 33.5419 14.0051 34.4139C13.6435 35.286 13.1294 36.0553 12.463 36.7217C11.7965 37.3882 11.0273 37.8987 10.1552 38.2532C9.28312 38.6077 8.37914 38.7849 7.44326 38.7849Z" fill="white"/>
</g>
<defs>
<clipPath id="clip0_0_85">
<rect width="21.27" height="56" fill="white" transform="matrix(1 0 0 -1 0.360352 56.1499)"/>
</clipPath>
</defs>
</svg>
