<svg width="22" height="57" viewBox="0 0 22 57" fill="none" xmlns="http://www.w3.org/2000/svg">
<g clip-path="url(#clip0_0_97)">
<path d="M5.67785 28.3526C6.64209 28.3526 7.53189 28.5901 8.34724 29.0652C9.16259 29.5402 9.80778 30.1854 10.2828 31.0007C10.7578 31.8161 10.9954 32.7059 10.9954 33.6701C10.9954 34.6343 10.7578 35.5241 10.2828 36.3395C9.80778 37.1548 9.16259 37.8 8.34724 38.2751C7.53189 38.7501 6.64209 38.9876 5.67785 38.9876C4.71361 38.9876 3.82382 38.7501 3.00847 38.2751C2.19312 37.8 1.54793 37.1548 1.0729 36.3395C0.597867 35.5241 0.360352 34.6343 0.360352 33.6701C0.360352 32.7059 0.597867 31.8161 1.0729 31.0007C1.54793 30.1854 2.19312 29.5402 3.00847 29.0652C3.82382 28.5901 4.71361 28.3526 5.67785 28.3526ZM5.67785 17.7176C6.64209 17.7176 7.53189 17.9551 8.34724 18.4302C9.16259 18.9052 9.80778 19.5504 10.2828 20.3657C10.7578 21.1811 10.9954 22.0709 10.9954 23.0351C10.9954 23.9994 10.7578 24.8891 10.2828 25.7045C9.80778 26.5198 9.16259 27.165 8.34724 27.6401C7.53189 28.1151 6.64209 28.3526 5.67785 28.3526C4.71361 28.3526 3.82382 28.1151 3.00847 27.6401C2.19312 27.165 1.54793 26.5198 1.0729 25.7045C0.597867 24.8891 0.360352 23.9994 0.360352 23.0351C0.360352 22.0709 0.597867 21.1811 1.0729 20.3657C1.54793 19.5504 2.19312 18.9052 3.00847 18.4302C3.82382 17.9551 4.71361 17.7176 5.67785 17.7176ZM21.3113 24.8218C21.3822 24.6091 21.446 24.3964 21.5027 24.1837H11.5484C11.5058 24.3964 11.4491 24.6091 11.3782 24.8218H21.3113ZM21.205 20.9507C21.1057 20.738 20.9993 20.5323 20.8859 20.3338H11.0166C11.1159 20.5323 11.2081 20.738 11.2931 20.9507H21.205ZM21.5665 22.2481C21.5382 22.0354 21.4956 21.8298 21.4389 21.6313H11.4846C11.5271 21.8298 11.5626 22.0354 11.5909 22.2481H21.5665ZM11.6335 23.5243H21.5878C21.6162 23.3258 21.6304 23.1627 21.6304 23.0351L21.6091 22.9075H11.6547V23.0351C11.6547 23.262 11.6476 23.4251 11.6335 23.5243ZM20.418 19.6744C20.2336 19.4476 20.0351 19.242 19.8224 19.0576H10.1233C10.2934 19.2561 10.4565 19.4618 10.6125 19.6744H20.418ZM20.6519 26.098C20.7937 25.8995 20.9214 25.6939 21.0348 25.4812H11.1442C11.045 25.6939 10.9315 25.8995 10.8039 26.098H20.6519ZM18.8865 18.3983C18.0924 17.9445 17.2346 17.7176 16.3129 17.7176H8.42168C8.79036 17.9161 9.13068 18.143 9.44264 18.3983H18.8865ZM9.78296 27.3742H19.3757C19.631 27.1898 19.872 26.9842 20.0989 26.7574H10.3573C10.1871 26.9701 9.99566 27.1757 9.78296 27.3742ZM19.8224 37.6689C20.0351 37.4703 20.2336 37.2576 20.418 37.0308H10.6125C10.4707 37.2576 10.3076 37.4703 10.1233 37.6689H19.8224ZM8.93216 28.6717H18.0995C17.5182 28.459 16.9226 28.3526 16.3129 28.3526C16.9226 28.3526 17.5182 28.2534 18.0995 28.0548H8.93216C8.762 28.1683 8.59184 28.2675 8.42168 28.3526C8.59184 28.4519 8.762 28.5582 8.93216 28.6717ZM16.3129 38.9876C17.2346 38.9876 18.0924 38.7678 18.8865 38.3282H9.44264C9.13068 38.5835 8.79036 38.8033 8.42168 38.9876H16.3129ZM10.3573 29.9479H20.0989C19.872 29.721 19.631 29.5154 19.3757 29.331H9.78296C9.99566 29.5296 10.1871 29.7352 10.3573 29.9479ZM20.8859 36.3714C20.9993 36.1729 21.1057 35.9673 21.205 35.7546H11.2931C11.2081 35.9673 11.1159 36.1729 11.0166 36.3714H20.8859ZM21.5027 32.5215C21.446 32.3088 21.3822 32.1032 21.3113 31.9047H11.3782C11.4491 32.1032 11.5058 32.3088 11.5484 32.5215H21.5027ZM11.6335 33.1809C11.6476 33.2943 11.6547 33.4574 11.6547 33.6701V33.7977H21.6091L21.6304 33.6701C21.6304 33.5708 21.6162 33.422 21.5878 33.2234V33.1809H11.6335ZM21.4389 35.0952C21.4956 34.8967 21.5382 34.6911 21.5665 34.4784H11.6122C11.5838 34.6911 11.5413 34.8967 11.4846 35.0952H21.4389ZM21.0348 31.2453C20.9214 31.0185 20.7937 30.8057 20.6519 30.6072H10.8039C10.9315 30.8199 11.045 31.0326 11.1442 31.2453H21.0348Z" fill="white"/>
</g>
<defs>
<clipPath id="clip0_0_97">
<rect width="21.27" height="56" fill="white" transform="matrix(1 0 0 -1 0.360352 56.3101)"/>
</clipPath>
</defs>
</svg>
