<svg width="22" height="56" viewBox="0 0 22 56" fill="none" xmlns="http://www.w3.org/2000/svg">
<g clip-path="url(#clip0_0_102)">
<path d="M10.9894 38.2632C10.9894 38.3057 10.9965 38.3623 11.0106 38.4332V38.6244V38.2632H10.9894ZM10.9894 17.7369H11.0106V17.3757C10.9965 17.4607 10.9894 17.5811 10.9894 17.7369ZM0.700001 28C0.700001 29.3883 0.969282 30.7199 1.50784 31.9948C2.03223 33.2272 2.76921 34.3144 3.71878 35.2565C4.66835 36.1985 5.75965 36.9316 6.99267 37.4557C8.26822 37.994 9.60045 38.2632 10.9894 38.2632V38.1144C10.6209 36.0887 10.2453 34.5659 9.86264 33.5459C9.43746 32.356 8.88473 31.4282 8.20444 30.7624C7.52415 30.0966 6.57458 29.5512 5.35573 29.1262C4.32112 28.7579 2.7763 28.3825 0.72126 28H0.700001ZM0.870073 27.9788C2.88259 27.6105 4.40616 27.2422 5.44076 26.8739C6.63127 26.4489 7.56312 25.9035 8.23633 25.2377C8.90953 24.5719 9.45872 23.644 9.8839 22.4541C10.2524 21.4342 10.6209 19.9184 10.9894 17.9069V17.7369C9.13275 17.7369 7.40368 18.2044 5.80217 19.1393C4.25735 20.0459 3.03141 21.2713 2.12436 22.8153C1.18896 24.4019 0.714173 26.1231 0.700001 27.9788H0.870073ZM21.3 28C19.2308 28.3825 17.6789 28.7579 16.6443 29.1262C15.4254 29.5512 14.4759 30.1037 13.7956 30.7836C13.1153 31.4636 12.5625 32.4056 12.1374 33.6097C11.7689 34.658 11.3933 36.2091 11.0106 38.2632C12.3996 38.2632 13.7318 37.994 15.0073 37.4557C16.2404 36.9316 17.3316 36.1985 18.2812 35.2565C19.2308 34.3144 19.9678 33.2272 20.4922 31.9948C21.0307 30.7199 21.3 29.3883 21.3 28ZM21.3 27.9788C21.2858 26.1231 20.811 24.4019 19.8756 22.8153C18.9686 21.2713 17.7427 20.0459 16.1978 19.1393C14.5963 18.2044 12.8673 17.7369 11.0106 17.7369V17.7582C11.3933 19.8122 11.7689 21.3563 12.1374 22.3904C12.5625 23.5945 13.1117 24.5365 13.7849 25.2165C14.4581 25.8964 15.39 26.4489 16.5805 26.8739C17.6151 27.2422 19.1458 27.6105 21.1724 27.9788H21.3Z" fill="white"/>
</g>
<defs>
<clipPath id="clip0_0_102">
<rect width="20.6" height="56" fill="white" transform="matrix(1 0 0 -1 0.700001 56)"/>
</clipPath>
</defs>
</svg>
