<svg width="22" height="56" viewBox="0 0 22 56" fill="none" xmlns="http://www.w3.org/2000/svg">
<g clip-path="url(#clip0_0_73)">
<path d="M0.892102 38.1245C0.537602 37.77 0.360352 37.3446 0.360352 36.8483C0.360352 36.352 0.537602 35.9266 0.892102 35.5721L18.5675 17.8968C18.922 17.5423 19.3438 17.365 19.833 17.365C20.3222 17.365 20.7441 17.5423 21.0986 17.8968C21.4531 18.2513 21.6304 18.6731 21.6304 19.1623C21.6304 19.6515 21.4531 20.0734 21.0986 20.4279L3.42323 38.1245C3.06873 38.479 2.64688 38.6563 2.15767 38.6563C1.66846 38.6563 1.2466 38.479 0.892102 38.1245ZM21.5665 26.2771C21.5665 26.2488 21.5665 26.2204 21.5665 26.1921C21.5524 25.8376 21.4425 25.5114 21.2369 25.2136C21.0312 24.9159 20.7618 24.6996 20.4286 24.5649C20.0954 24.4302 19.7515 24.3983 19.397 24.4692C19.0425 24.5401 18.7376 24.7032 18.4824 24.9584L13.2074 30.2121L7.95374 35.4871C7.6985 35.7423 7.53543 36.0472 7.46453 36.4017C7.39363 36.7562 7.42554 37.1 7.56025 37.4333C7.69496 37.7665 7.9112 38.0359 8.20898 38.2415C8.50676 38.4471 8.8329 38.557 9.1874 38.5712H21.5878L21.5665 26.2771ZM12.7182 17.4288H12.8033C13.1578 17.443 13.4839 17.5529 13.7817 17.7585C14.0795 17.9641 14.2957 18.2335 14.4305 18.5668C14.5652 18.9 14.5971 19.2439 14.5262 19.5984C14.4553 19.9529 14.2922 20.2577 14.037 20.513L8.78327 25.7879L3.50831 31.0416C3.25307 31.2969 2.9482 31.4599 2.5937 31.5308C2.2392 31.6017 1.89534 31.5698 1.56211 31.4351C1.22888 31.3004 0.959457 31.0842 0.753847 30.7864C0.548237 30.4886 0.438342 30.1625 0.424162 29.808V17.4288H12.7182Z" fill="white"/>
</g>
<defs>
<clipPath id="clip0_0_73">
<rect width="21.27" height="56" fill="white" transform="matrix(1 0 0 -1 0.360352 56)"/>
</clipPath>
</defs>
</svg>
